<svg width="119" height="170" viewBox="0 0 119 170" fill="none" xmlns="http://www.w3.org/2000/svg">
<style>
  @media (prefers-color-scheme: dark) {
    .theme-color {
      fill: #FFFFFF;
    }
  }
  @media (prefers-color-scheme: light) {
    .theme-color {
      fill: #000000;
    }
  }
</style>
<circle cx="64.5" cy="115.5" r="54.5" fill="#D4A76A"/>
<path class="theme-color" d="M12.8008 110.583V112.361L13.5119 113.072V113.427L14.5786 114.494H14.9342L15.2898 114.85H15.6454L16.0009 115.205H17.0676L17.4232 115.561H19.2011L19.5566 115.205H20.6234L20.9789 114.85H21.3345L22.7568 113.427V110.938H15.6454L15.2898 110.583H12.8008Z"/>
<path class="theme-color" d="M19.9109 93.1597L18.133 94.9375H17.7774L17.4219 95.2931H17.0663L16.7107 95.6487H14.5773L14.2217 95.2931H13.8662L13.155 94.582H11.0216L10.666 94.9375H10.3104L9.5993 95.6487H9.24373L8.88816 96.0042H8.53259L8.17701 96.3598H7.82144L7.46587 96.7154H6.39916L6.04359 97.071H3.91016V98.4932L4.26573 98.8488V99.2044L4.97687 99.9155H5.33244L5.68801 100.271H6.75473L7.1103 100.627H9.24373L9.5993 100.982V104.182L9.95487 104.538V105.605L10.3104 105.96V106.671L11.0216 107.383V107.738L11.7327 108.449H12.0883L12.4439 108.805H12.7994L13.155 109.16H16.7107L17.0663 108.805H18.133L18.4886 109.16H18.8442L19.1997 109.516H19.5553L19.9109 109.872H25.9556L26.3112 110.227H28.089L28.4446 109.872H29.5113L29.8669 109.516V107.738L28.8002 106.671H28.4446L27.7334 105.96H27.3779L26.6667 105.249H26.3112L25.6 104.538H23.4666L21.6887 106.316H20.2664L19.9109 105.96H19.5553L19.1997 105.605H18.8442L18.4886 105.249H18.133L17.7774 104.894H15.2884L14.9329 105.249H13.8662L13.5106 104.894V104.538L14.5773 103.471H14.9329L15.2884 103.116H15.9996L16.3552 102.76H16.7107L17.0663 102.405H17.7774L19.1997 100.982V100.627L19.5553 100.271V99.9155L21.6887 97.7821V97.4265L22.0443 97.071V93.5152L21.6887 93.1597H19.9109Z"/>
<path class="theme-color" d="M3.19953 68.2698L2.84396 68.6253H2.48838V68.9809L2.13281 69.3365V71.4699L2.48838 71.8255V72.1811L4.26624 73.9589H4.62181L4.97738 74.3145H5.33296L5.68853 74.6701H6.39967L6.75524 75.0256H9.95539V72.5366L9.59981 72.1811V71.4699L9.24424 71.1143V70.7588L8.88867 70.4032V70.0476L8.17753 69.3365H7.82196L7.46639 68.9809H7.11081L6.75524 68.6253H6.0441L5.68853 68.2698H3.19953Z"/>
<path class="theme-color" d="M17.4194 67.5586L17.0638 67.9142H14.2193L13.8637 68.2697H12.797V70.4032L13.1525 70.7587V71.8255L13.5081 72.181V76.8035L13.1525 77.159V78.2257L12.797 78.5813V80.3592L12.4414 80.7147V83.5593L12.797 83.9149V84.2705H15.6416L17.775 82.137V81.7815L18.1306 81.4259V81.0703L18.4861 80.7147V80.3592L18.8417 80.0036V79.648L19.9084 78.5813H20.264L20.6196 78.9369H20.9751L21.3307 79.2925H24.5308L24.8864 78.9369V78.2257L25.242 77.8702V75.0256L24.8864 74.67V74.3145L25.242 73.9589V73.6033L25.5976 73.2477H27.3754L27.731 73.6033H28.4421L28.7977 73.9589H29.5088L29.8644 74.3145H30.22L30.5756 74.67H30.9311L31.6423 75.3812H31.9978L34.8424 78.2257H35.198L35.5536 78.5813H38.3981L38.7537 78.2257H39.4648L39.8204 77.8702H40.176L40.5316 77.5146H40.8871L41.9538 76.4479H42.3094L43.0206 75.7367V73.9589L42.3094 73.2477H41.9538L41.5983 72.8922H41.2427L40.8871 72.5366H40.5316L40.176 72.181H39.8204L39.4648 71.8255H39.1093L38.7537 71.4699H38.3981L38.0426 71.1143H37.687L37.3314 70.7587H36.6203L36.2647 70.4032H35.9091L35.5536 70.0476H34.8424L34.4868 69.692H33.7757L33.4201 69.3365H32.3534L31.9978 68.9809H30.9311L30.5756 68.6253H29.5088L29.1533 68.2697H27.3754L27.0198 67.9142H24.1753L23.8197 67.5586H17.4194Z"/>
<path class="theme-color" d="M18.1328 41.2463V43.0242L18.4884 43.3798V44.0909L18.844 44.4465V44.8021L19.5551 45.5132V45.8688L21.6885 48.0022H22.3997L22.7552 48.3578H26.6665L27.3777 47.6466V45.5132L25.9554 44.0909H25.2442L24.8887 43.7353H24.5331L24.1775 43.3798H23.4664L23.1108 43.0242H22.3997L22.0441 42.6686H21.6885L21.333 42.3131H20.9774L20.6218 41.9575H20.2662L19.5551 41.2463H18.1328Z"/>
<path class="theme-color" d="M11.0221 40.5352L10.6665 40.8907V41.2463L10.311 41.6019V41.9574L9.59981 42.6686V43.0242L8.5331 44.0909H7.82196L7.46639 43.7353H5.33296V46.2243L4.97738 46.5799V46.9354L3.91067 48.0022H2.13281V49.78L2.48838 50.1356V50.4912L2.84396 50.8467V51.2023L3.19953 51.5579V51.9134H4.97738L6.39967 50.4912H7.11081L7.46639 50.1356H9.95539L10.311 49.78H11.0221L11.3777 49.4244H12.0888L12.4444 49.0689H12.8L13.5111 48.3577H13.8667V48.0022L14.5778 47.291V46.9354L14.9334 46.5799V43.0242L14.5778 42.6686V41.9574L14.2222 41.6019V41.2463L13.5111 40.5352H11.0221Z"/>
<path class="theme-color" d="M8.17815 17.7786V19.5564L8.53372 19.912V23.1121L8.17815 23.4677V24.5344L7.82257 24.89V25.2456L7.11143 25.9567V26.3123L6.40029 27.0234H6.04472L5.68914 27.379H5.33357L4.978 27.7346H2.84457L2.489 27.379H0V29.5124L0.355572 29.868V30.2236L1.42229 31.2903V31.6459L1.77786 32.0014V32.357L2.489 33.0681V33.4237L2.84457 33.7793V34.1349L3.20014 34.4904V34.846L3.55572 35.2016V35.9127H5.33357V35.5571L5.68914 35.2016V34.846L6.04472 34.4904V34.1349L6.40029 33.7793V33.4237L6.75586 33.0681V32.7126L7.11143 32.357V32.0014L7.467 31.6459V31.2903L7.82257 30.9347V30.5791L8.88929 29.5124V29.1569L10.6671 27.379H11.0227L11.3783 27.0234H11.7339L12.0894 26.6679H13.5117L13.8673 26.3123H17.0674L17.423 25.9567V23.8233H17.0674L16.3563 23.1121H16.0007L15.6451 22.7566H15.2896L13.8673 21.3343V20.9787L12.8006 19.912V19.5564L11.7339 18.4897H11.3783L11.0227 18.1341H10.6671L10.3116 17.7786H8.17815Z"/>
<path class="theme-color" d="M16.7149 16.3564L16.3594 16.712V19.5566L17.4261 20.6233V20.9789L22.0485 25.6013V25.9569H22.4041L22.7597 26.3124V26.668L23.1152 27.0236H24.5375V23.8234L24.1819 23.4679V22.4012L23.8264 22.0456V20.9789L23.4708 20.6233V19.9122L23.1152 19.5566V18.8454L22.7597 18.4899V18.1343L22.4041 17.7787V17.4232H22.0485L21.6929 17.0676H20.9818L20.6262 16.712H19.9151L19.5595 16.3564H16.7149Z"/>
<path class="theme-color" d="M72.8915 9.95581V11.3781L73.247 11.7337V12.0892L73.6026 12.4448V13.156L73.9582 13.5115V14.9338L73.6026 15.2894V16.0005L73.247 16.3561V16.7117L72.5359 17.4228V17.7784L72.1803 18.134V18.4895L71.4692 19.2007V20.2674L71.1136 20.623V23.4675L71.4692 23.8231V24.1787L71.8247 24.5342V24.8898L72.5359 25.601V25.9565L73.247 26.6677V27.7344L72.8915 28.09H72.1803L71.8247 27.7344H71.4692L70.4024 26.6677H70.0469L67.2023 23.8231H66.8467L66.1356 23.112H65.78L65.0689 22.4008H64.3577L64.0022 22.0452H62.9354L62.5799 21.6897H59.7353V22.0452L58.6686 23.112V23.4675L57.9574 24.1787H57.6019L56.8907 24.8898H56.5352L56.1796 25.2454H55.824L55.4684 25.601H54.7573L54.4017 25.2454H53.6906L53.335 24.8898H52.9794L50.846 22.7564V22.4008L50.4904 22.0452V20.9785L50.846 20.623V19.9118L51.2016 19.5562V19.2007L51.5572 18.8451V18.4895L51.9127 18.134V17.7784L52.2683 17.4228V17.0672L52.6239 16.7117V14.2227L52.2683 13.8671H50.4904L49.7793 14.5782H49.4237L49.0682 14.9338H48.7126L48.0014 15.645H47.2903L46.9347 16.0005H46.2236L45.868 16.3561H41.2456V18.4895L41.6012 18.8451V19.2007L42.3123 19.9118V20.2674L42.6679 20.623V20.9785L43.0234 21.3341V21.6897L43.379 22.0452V22.4008L43.7346 22.7564V23.112L44.0902 23.4675V23.8231L44.4457 24.1787V24.5342L44.8013 24.8898V25.601L45.1569 25.9565V26.6677L45.5124 27.0232V27.7344L45.868 28.09V29.1567L46.2236 29.5122V31.6457L46.5792 32.0012V32.7124L47.2903 33.4235H50.4904L51.2016 32.7124H51.5572L51.9127 32.3568H52.9794L53.335 32.0012H57.2463L57.6019 31.6457H58.6686L59.0242 31.2901H59.3797L60.802 29.8678L61.8687 30.9345V31.2901L62.2243 31.6457V32.0012L62.5799 32.3568V32.7124L62.9354 33.068V34.1347L62.5799 34.4902H62.2243L61.8687 34.8458H59.7353L59.3797 35.2014H57.9574L57.6019 35.557H56.5352L56.1796 35.9125H55.1129L54.7573 36.2681H54.0462L53.6906 36.6237H53.335L52.9794 36.9792H52.6239L52.2683 37.3348H51.9127L51.2016 38.046H50.846L49.7793 39.1127V39.4682L49.0682 40.1794V40.535L48.7126 40.8905V41.6017L48.357 41.9572V45.513L48.0014 45.8685V46.5797L47.6459 46.9353H47.2903L46.2236 45.8685V45.513L45.868 45.1574V44.8018L45.5124 44.4462V43.7351L45.1569 43.3795V42.3128L44.8013 41.9572V39.1127L45.1569 38.7571V38.046L45.5124 37.6904V37.3348L45.868 36.9792V35.557H43.7346L43.379 35.9125H43.0234L42.6679 36.2681H42.3123L41.9567 36.6237H41.6012L39.8233 38.4015V38.7571L39.4677 39.1127L38.7566 38.4015V38.046L35.2009 34.4902H34.4897L34.1341 34.1347H32.7119L32.3563 34.4902V37.3348L32.7119 37.6904V38.046L33.0674 38.4015V39.1127L33.423 39.4682L33.0674 39.8238V40.535L32.0007 41.6017H31.2896L30.934 41.2461H30.5784L29.8673 40.535H29.5117L27.3783 38.4015H25.956V40.535L26.3116 40.8905V41.6017L26.6671 41.9572V42.3128L27.0227 42.6684V43.024L27.7339 43.7351V44.0907L28.0894 44.4462H28.445L29.1561 45.1574H29.5117L30.2229 45.8685H30.934L31.2896 46.2241H31.6451L32.0007 46.5797H32.7119L33.0674 46.9353H33.423L33.7786 47.2908H34.1341L34.4897 47.6464H35.2009L35.5564 48.002H35.912L36.2676 48.3575H36.9787L37.3343 48.7131H37.6899L38.0454 49.0687H38.401L38.7566 49.4243H39.1122L39.4677 49.7798H39.8233L40.5344 50.491H40.89L41.2456 50.8465H41.6012L44.8013 54.0467V54.4023L45.1569 54.7578V55.1134L45.5124 55.469V55.8245L45.868 56.1801H46.2236L46.5792 56.5357H49.4237L49.7793 56.1801H50.1349L50.4904 55.8245H51.5572L52.2683 56.5357V56.8913L52.6239 57.2468V57.6024L52.2683 57.958V58.6691L51.9127 59.0247V60.447L51.5572 60.8025V64.0027L51.9127 64.3583H53.335L53.6906 64.0027H54.0462L54.4017 63.6471H54.7573L55.1129 63.2915H55.4684L55.824 62.936H56.1796L56.5352 63.2915V64.0027L56.1796 64.3583V64.7138L55.824 65.0694V65.7805L55.4684 66.1361V66.4917L55.1129 66.8473V67.5584L54.7573 67.914V68.6251L54.4017 68.9807V69.6918L54.0462 70.0474V70.7585L53.6906 71.1141V72.1808L53.335 72.5364V73.6031L52.9794 73.9587V77.1588L52.6239 77.5144V79.2923L52.2683 79.6478V80.7145L51.9127 81.0701V81.4257L51.5572 81.7813V82.1368L51.2016 82.4924V82.848L50.4904 83.5591V83.9147L47.2903 87.1148H46.9347L46.2236 87.826H45.868L45.5124 88.1815H45.1569L44.8013 88.5371H44.4457L44.0902 88.8927H43.7346L43.379 89.2483H42.6679L42.3123 89.6038H41.6012L41.2456 89.9594H40.5344L40.1789 90.315H38.7566L38.401 90.6705H37.6899L37.3343 91.0261H36.6232L36.2676 91.3817H35.912L35.2009 92.0928V94.2263L35.5564 94.5818H35.912L36.6232 95.293H37.3343L37.6899 95.6486H38.0454L38.401 96.0041H39.1122L39.4677 96.3597H40.1789L40.5344 96.7153H41.2456L41.6012 97.0708H42.6679L43.0234 97.4264H43.7346L44.0902 97.782H44.8013L45.1569 98.1376H45.5124L46.2236 98.8487H46.5792L48.0014 100.271V100.627L48.357 100.982V101.338L48.7126 101.693V102.404L49.0682 102.76L48.7126 103.116V104.182L48.357 104.538V104.893L48.0014 105.249V105.605L47.6459 105.96V106.316L46.9347 107.027V107.382L44.0902 110.227H43.7346L42.3123 111.649H41.9567L40.89 112.716H40.5344L40.1789 113.072H39.8233L39.1122 113.783H38.7566L38.0454 114.494H37.6899L37.3343 114.849H36.9787L36.2676 115.561H35.912L35.5564 115.916H35.2009L34.4897 116.627H34.1341L33.7786 116.983H33.423L32.7119 117.694H32.3563L32.0007 118.05H31.6451L31.2896 118.405H30.934L30.2229 119.116H29.8673L29.5117 119.472H29.1561L28.8006 119.827H28.445L28.0894 120.183H27.7339L27.3783 120.539H27.0227L26.6671 120.894H26.3116L25.956 121.25H25.2449L24.8893 121.605H24.1781L23.8226 121.961H23.1114L22.7559 122.316H19.2001L18.8446 121.961H18.1334L17.7779 121.605H16V124.094L16.3556 124.45H16.7111L17.0667 124.805H17.4223L17.7779 125.161H18.1334L18.489 125.517H19.2001L19.5557 125.872H19.9113L20.2669 126.228H20.978L21.3336 126.583H21.6891L22.4003 127.294H22.7559L23.1114 127.65H23.467L26.3116 130.495V130.85L27.0227 131.561V131.917L27.7339 132.628V132.984L28.0894 133.339V133.695L28.445 134.05V134.406L29.1561 135.117V135.473L29.5117 135.828V136.184L30.2229 136.895V137.25L30.934 137.962V138.317L32.7119 140.095V140.451L33.0674 140.806H33.423L34.4897 141.873H34.8453L35.2009 142.228H35.5564L35.912 142.584H36.9787L37.3343 142.94H39.4677L39.8233 142.584H40.89L41.2456 142.228H41.6012L41.9567 141.873H42.3123L46.2236 137.962V137.606L47.6459 136.184V135.828L48.7126 134.761V134.406L49.7793 133.339V132.984L50.4904 132.272V131.917L51.5572 130.85V130.495L52.2683 129.783V129.428L53.335 128.361V128.006L54.0462 127.294V126.939L55.1129 125.872V125.517L56.1796 124.45V124.094L59.3797 120.894L60.4464 121.961V122.672L60.802 123.028V129.072L60.4464 129.428V131.917L60.0909 132.272V134.406L59.7353 134.761V136.539L59.3797 136.895V139.384L59.0242 139.739V143.295L59.3797 143.651V144.362L60.0909 145.073H61.8687L62.9354 144.006V143.651L63.291 143.295V142.94L63.6466 142.584V142.228L64.0022 141.873V141.162L64.3577 140.806V140.451L64.7133 140.095V139.384L65.0689 139.028V138.673L65.4244 138.317V137.606L65.78 137.25V136.895L66.1356 136.539V135.828L66.4912 135.473V135.117L66.8467 134.761V134.05L67.2023 133.695V133.339L67.5579 132.984V132.628L67.9134 132.272V131.917L68.269 131.561V131.206L68.6246 130.85V130.495L68.9802 130.139V129.783L69.3357 129.428V129.072L70.0469 128.361V128.006L71.1136 126.939V126.583L71.4692 126.228H71.8247L72.1803 125.872H72.5359L72.8915 126.228V126.583L73.6026 127.294V127.65L73.9582 128.006V128.361L74.6693 129.072V129.428L75.3805 130.139V130.495L75.736 130.85V131.206L76.8027 132.272V132.628H77.1583L77.5139 132.984H79.2917V132.628L79.6473 132.272V126.228L79.2917 125.872V120.539L78.9362 120.183V108.805L79.2917 108.449V106.671L79.6473 106.316V105.605L80.0029 105.249H81.0696L81.4252 104.893H82.4919L82.8475 104.538H83.5586L83.9142 104.182H84.6253L84.9809 103.827H85.3365L85.692 103.471H86.0476L86.4032 103.116H86.7587L87.8255 102.049H88.181L89.6033 100.627V100.271L90.3145 99.5598V99.2043L91.0256 98.4931V98.1376L91.3812 97.782V97.0708L91.7367 96.7153V95.6486L92.0923 95.293V94.2263L92.4479 93.8707H96.0036L96.3592 93.5151H97.0703L97.4259 93.1596H97.7815L99.9149 91.0261V90.6705L101.337 89.2483V88.8927L102.404 87.826V87.4704L103.115 86.7593V86.4037L103.471 86.0481V85.6925L103.826 85.337V84.6258L104.182 84.2703V81.0701L103.826 80.7145V80.0034L103.115 79.2923V78.9367L102.759 78.5811H102.404L101.693 77.87L102.048 77.5144V77.1588L102.404 76.8033V76.4477L103.115 75.7365V75.381L104.182 74.3143V73.9587L104.537 73.6031V73.2475L105.248 72.5364V72.1808L105.604 71.8253V71.4697L105.96 71.1141V70.7585L106.315 70.403V70.0474L106.671 69.6918V68.9807L107.026 68.6251V67.914L107.382 67.5584V66.4917L107.737 66.1361V59.7358L107.382 59.3803V58.3135L107.026 57.958V57.2468L106.671 56.8913V56.5357L106.315 56.1801V55.8245L107.026 55.1134V54.7578L107.382 54.4023V53.6911L107.737 53.3355V52.6244L108.093 52.2688V48.002L107.737 47.6464V46.5797L107.382 46.2241V45.8685L107.026 45.513H104.537L102.759 47.2908H102.048L101.693 46.9353V46.5797L101.337 46.2241V45.8685L100.982 45.513V44.8018L101.337 44.4462V43.7351L101.693 43.3795V43.024L102.048 42.6684V42.3128L102.404 41.9572V41.2461L102.759 40.8905V40.1794L103.115 39.8238V34.1347L102.759 33.7791V33.4235L102.404 33.068V32.7124L102.048 32.3568V32.0012L99.9149 29.8678H99.5593L99.2037 29.5122H96.7147L96.3592 29.8678V33.7791L96.7147 34.1347V35.2014L97.0703 35.557V36.6237L96.7147 36.9792V37.6904L96.3592 38.046V38.4015L96.0036 38.7571H93.5146L93.159 39.1127H92.0923L91.0256 40.1794V40.535L90.67 40.8905V45.1574L91.0256 45.513V46.5797L90.67 46.9353L90.3145 46.5797H89.9589L89.6033 46.2241H89.2477L88.181 45.1574H87.8255L86.4032 43.7351V43.3795L84.9809 41.9572V41.6017L84.2697 40.8905V40.535L83.9142 40.1794V39.8238L83.5586 39.4682V38.7571L83.203 38.4015V36.9792L83.5586 36.6237L84.2697 37.3348H84.6253L84.9809 37.6904H88.181L88.5366 37.3348H88.8922L89.2477 36.9792H89.6033L89.9589 36.6237H90.3145L91.0256 35.9125H91.3812L92.8035 34.4902V34.1347L93.5146 33.4235V33.068L93.8702 32.7124V28.09L93.5146 27.7344V27.3788L93.159 27.0232V26.6677L92.8035 26.3121V25.9565L92.4479 25.601V24.8898L92.0923 24.5342V24.1787L91.7367 23.8231V23.4675L91.3812 23.112V22.7564L91.0256 22.4008V22.0452L90.67 21.6897V21.3341L89.9589 20.623V20.2674L89.2477 19.5562V19.2007L87.4699 17.4228H87.1143L86.7587 17.0672H84.6253V18.8451L84.9809 19.2007V20.2674L85.3365 20.623V22.0452L85.692 22.4008V24.5342L86.0476 24.8898V25.2454L85.692 25.601V26.6677L85.3365 27.0232V27.3788L84.9809 27.7344V28.09L83.203 29.8678H82.4919L81.4252 28.8011V28.4455L81.0696 28.09V27.7344L80.714 27.3788V26.6677L80.3585 26.3121V24.8898L80.0029 24.5342V22.4008L79.6473 22.0452V18.8451L79.2917 18.4895V17.0672L78.9362 16.7117V15.645L78.5806 15.2894V14.9338L78.225 14.5782V14.2227L77.8695 13.8671V13.5115L77.5139 13.156V12.8004L75.0249 10.3114H74.6693L74.3137 9.95581H72.8915Z"/>
<path class="theme-color" d="M34.4904 9.95581L33.4237 11.0225H33.0682L30.2236 13.8671H29.868L28.0902 15.645V16.0005L27.7346 16.3561V16.7117L27.379 17.0672V17.7784L27.0234 18.134V21.3341L27.379 21.6897V23.112L27.7346 23.4675V24.8898L28.0902 25.2454V25.9565L28.4457 26.3121V27.0232L28.8013 27.3788V27.7344L29.1569 28.09V28.4455L29.5124 28.8011H29.868L30.2236 29.1567H30.5792L30.9347 29.5122H33.4237L33.7793 29.8678H40.1796L40.5352 30.2234H41.9574V27.3788L41.6019 27.0232V26.3121L41.2463 25.9565V25.601L40.8907 25.2454V24.8898L38.4017 22.4008H38.0462L35.2016 19.5562V19.2007L34.846 18.8451V18.134L35.2016 17.7784V17.4228L35.5572 17.0672V16.7117L36.2683 16.0005V15.645L36.6239 15.2894V14.9338L36.9794 14.5782V13.8671L37.335 13.5115V11.0225L36.9794 10.667V10.3114L36.6239 9.95581H34.4904Z"/>
<path class="theme-color" d="M37.6875 2.48901V3.9113L38.0431 4.26687V4.62244L44.0878 10.6672H44.4434L44.7989 11.0227H52.2659L52.6215 10.6672H53.3326V8.8893L52.9771 8.53373V8.17816L52.6215 7.82259H52.2659L51.5548 7.11144H51.1992L50.4881 6.4003H50.1325L49.7769 6.04473H49.4214L49.0658 5.68916H48.3546L47.9991 5.33359H47.6435L47.2879 4.97801H46.5768L46.2212 4.62244H45.8656L45.5101 4.26687H44.7989L44.4434 3.9113H44.0878L43.7322 3.55573H43.3766L43.0211 3.20016H42.6655L42.3099 2.84459H41.5988L41.2432 2.48901H37.6875Z"/>
<path class="theme-color" d="M54.7578 0V3.55572L55.1134 3.91129V4.26686L55.469 4.62243V4.978L55.8245 5.33357V5.68914L57.6024 7.467V7.82257L57.958 8.17815V8.53372L58.3135 8.88929V10.6671L58.6691 11.0227V13.1561L59.0247 13.5117V13.8673L62.2248 17.0674V17.423L62.936 18.1341V18.4897L63.2915 18.8453V19.5564L63.6471 19.912H64.0027L64.3582 20.2676H66.8472V11.3783L66.4917 11.0227V9.60043L66.1361 9.24486V8.53372L65.7805 8.17815V7.82257L65.425 7.467V7.11143L61.1581 2.84457H60.8025L59.7358 1.77786H59.3802L58.6691 1.06671H58.3135L57.958 0.711143H57.6024L57.2468 0.355572H56.8912L56.5357 0H54.7578Z"/>
</svg>
