<svg width="50" height="50" viewBox="0 0 50 50" fill="none" xmlns="http://www.w3.org/2000/svg">
<rect width="50" height="50" rx="8" fill="url(#paint0_linear_1173_4042)"/>
<path d="M30 20V38C30 39.5913 29.4205 41.1174 28.3891 42.2426C27.3576 43.3679 25.9587 44 24.5 44C23.0413 44 21.6424 43.3679 20.6109 42.2426C19.5795 41.1174 19 39.5913 19 38V20" stroke="black" stroke-width="3" stroke-linejoin="round"/>
<path d="M16 20H33" stroke="black" stroke-width="3" stroke-linecap="round" stroke-linejoin="round"/>
<path d="M27 38V29.165C27 29.1212 26.9855 29.0793 26.9597 29.0483C26.9339 29.0174 26.899 29 26.8625 29H22.1375C22.101 29 22.0661 29.0174 22.0403 29.0483C22.0145 29.0793 22 29.1212 22 29.165V38C22 38.7956 22.2634 39.5587 22.7322 40.1213C23.2011 40.6839 23.837 41 24.5 41C25.163 41 25.7989 40.6839 26.2678 40.1213C26.7366 39.5587 27 38.7956 27 38Z" fill="black"/>
<path d="M29 16C30.1046 16 31 15.1046 31 14C31 12.8954 30.1046 12 29 12C27.8954 12 27 12.8954 27 14C27 15.1046 27.8954 16 29 16Z" fill="black" stroke="black" stroke-width="2" stroke-linejoin="round"/>
<path d="M27.5 8C28.3284 8 29 7.32843 29 6.5C29 5.67157 28.3284 5 27.5 5C26.6716 5 26 5.67157 26 6.5C26 7.32843 26.6716 8 27.5 8Z" fill="black" stroke="black" stroke-linejoin="round"/>
<path d="M22.5 13C23.3284 13 24 12.3284 24 11.5C24 10.6716 23.3284 10 22.5 10C21.6716 10 21 10.6716 21 11.5C21 12.3284 21.6716 13 22.5 13Z" fill="black" stroke="black" stroke-linejoin="round"/>
<defs>
<linearGradient id="paint0_linear_1173_4042" x1="-6.5" y1="-5.5" x2="50.0771" y2="72.7582" gradientUnits="userSpaceOnUse">
<stop offset="0.24238" stop-color="#36BEFF"/>
<stop offset="0.489463" stop-color="#557DF8"/>
<stop offset="0.764012" stop-color="#5C6EF6"/>
<stop offset="0.784219" stop-color="#665AF4"/>
<stop offset="1" stop-color="#733FF1"/>
</linearGradient>
</defs>
</svg>
