<svg width="155" height="209" viewBox="0 0 155 209" fill="none" xmlns="http://www.w3.org/2000/svg">
<path d="M18.3555 158.568V161.118L19.3752 162.137V162.647L20.9048 164.177H21.4147L21.9245 164.687H22.4344L22.9443 165.197H24.4739L24.9837 165.706H27.5331L28.0429 165.197H29.5725L30.0824 164.687H30.5923L32.6317 162.647V159.078H22.4344L21.9245 158.568H18.3555Z" fill="url(#paint0_linear_1148_3977)"/>
<path d="M28.5494 133.585L26.0001 136.134H25.4903L24.9804 136.644H24.4705L23.9607 137.154H20.9015L20.3916 136.644H19.8817L18.862 135.624H15.8028L15.2929 136.134H14.7831L13.7633 137.154H13.2535L12.7436 137.664H12.2337L11.7239 138.174H11.214L10.7041 138.684H9.17453L8.66467 139.193H5.60547V141.233L6.11533 141.743V142.253L7.13507 143.272H7.64493L8.1548 143.782H9.6844L10.1943 144.292H13.2535L13.7633 144.802V149.391L14.2732 149.901V151.43L14.7831 151.94V152.96L15.8028 153.98V154.489L16.8225 155.509H17.3324L17.8423 156.019H18.3521L18.862 156.529H23.9607L24.4705 156.019H26.0001L26.51 156.529H27.0199L27.5297 157.039H28.0396L28.5494 157.549H37.2172L37.727 158.059H40.2764L40.7862 157.549H42.3158L42.8257 157.039V154.489L41.2961 152.96H40.7862L39.7665 151.94H39.2566L38.2369 150.92H37.727L36.7073 149.901H33.6481L31.0988 152.45H29.0593L28.5494 151.94H28.0396L27.5297 151.43H27.0199L26.51 150.92H26.0001L25.4903 150.411H21.9212L21.4113 150.92H19.8817L19.3719 150.411V149.901L20.9015 148.371H21.4113L21.9212 147.861H22.9409L23.4508 147.351H23.9607L24.4705 146.841H25.4903L27.5297 144.802V144.292L28.0396 143.782V143.272L31.0988 140.213V139.703L31.6086 139.193V134.095L31.0988 133.585H28.5494Z" fill="url(#paint1_linear_1148_3977)"/>
<path d="M4.58819 97.8943L4.07833 98.4042H3.56846V98.914L3.05859 99.4239V102.483L3.56846 102.993V103.503L6.11779 106.052H6.62766L7.13752 106.562H7.64739L8.15726 107.072H9.17699L9.68685 107.582H14.2757V104.013L13.7658 103.503V102.483L13.2559 101.973V101.463L12.7461 100.953V100.444L11.7263 99.4239H11.2165L10.7066 98.914H10.1967L9.68685 98.4042H8.66712L8.15726 97.8943H4.58819Z" fill="url(#paint2_linear_1148_3977)"/>
<path d="M24.978 96.8745L24.4681 97.3844H20.3892L19.8793 97.8942H18.3497V100.953L18.8596 101.463V102.993L19.3694 103.503V110.131L18.8596 110.641V112.17L18.3497 112.68V115.23L17.8398 115.74V119.818L18.3497 120.328V120.838H22.4286L25.4878 117.779V117.269L25.9977 116.759V116.249L26.5076 115.74V115.23L27.0174 114.72V114.21L28.547 112.68H29.0569L29.5668 113.19H30.0766L30.5865 113.7H35.1753L35.6852 113.19V112.17L36.195 111.661V107.582L35.6852 107.072V106.562L36.195 106.052V105.542L36.7049 105.032H39.2542L39.7641 105.542H40.7838L41.2937 106.052H42.3134L42.8233 106.562H43.3332L43.843 107.072H44.3529L45.3726 108.092H45.8825L49.9614 112.17H50.4713L50.9811 112.68H55.0601L55.5699 112.17H56.5897L57.0995 111.661H57.6094L58.1193 111.151H58.6291L60.1587 109.621H60.6686L61.6883 108.601V106.052L60.6686 105.032H60.1587L59.6489 104.523H59.139L58.6291 104.013H58.1193L57.6094 103.503H57.0995L56.5897 102.993H56.0798L55.5699 102.483H55.0601L54.5502 101.973H54.0403L53.5305 101.463H52.5107L52.0009 100.953H51.491L50.9811 100.444H49.9614L49.4516 99.9337H48.4318L47.922 99.4238H46.3924L45.8825 98.914H44.3529L43.843 98.4041H42.3134L41.8036 97.8942H39.2542L38.7444 97.3844H34.6654L34.1556 96.8745H24.978Z" fill="url(#paint3_linear_1148_3977)"/>
<path d="M26 59.1445V61.6939L26.5099 62.2037V63.2235L27.0197 63.7333V64.2432L28.0395 65.2629V65.7728L31.0987 68.832H32.1184L32.6283 69.3419H38.2368L39.2565 68.3221V65.2629L37.2171 63.2235H36.1973L35.6875 62.7136H35.1776L34.6677 62.2037H33.648L33.1381 61.6939H32.1184L31.6085 61.184H31.0987L30.5888 60.6741H30.0789L29.5691 60.1643H29.0592L28.0395 59.1445H26Z" fill="url(#paint4_linear_1148_3977)"/>
<path d="M15.8052 58.1248L15.2954 58.6346V59.1445L14.7855 59.6544V60.1642L13.7658 61.184V61.6938L12.2362 63.2234H11.2165L10.7066 62.7136H7.64739V66.2826L7.13752 66.7925V67.3023L5.60792 68.8319H3.05859V71.3813L3.56846 71.8911V72.401L4.07833 72.9109V73.4207L4.58819 73.9306V74.4405H7.13752L9.17699 72.401H10.1967L10.7066 71.8911H14.2756L14.7855 71.3813H15.8052L16.3151 70.8714H17.3348L17.8447 70.3615H18.3546L19.3743 69.3418H19.8842V68.8319L20.9039 67.8122V67.3023L21.4138 66.7925V61.6938L20.9039 61.184V60.1642L20.394 59.6544V59.1445L19.3743 58.1248H15.8052Z" fill="url(#paint5_linear_1148_3977)"/>
<path d="M11.7269 25.4934V28.0427L12.2368 28.5526V33.1414L11.7269 33.6513V35.1809L11.2171 35.6907V36.2006L10.1973 37.2203V37.7302L9.17759 38.7499H8.66773L8.15786 39.2598H7.64799L7.13813 39.7697H4.07893L3.56906 39.2598H0V42.319L0.509866 42.8289V43.3387L2.03946 44.8683V45.3782L2.54933 45.8881V46.3979L3.56906 47.4177V47.9275L4.07893 48.4374V48.9473L4.5888 49.4571V49.967L5.09866 50.4769V51.4966H7.64799V50.9867L8.15786 50.4769V49.967L8.66773 49.4571V48.9473L9.17759 48.4374V47.9275L9.68746 47.4177V46.9078L10.1973 46.3979V45.8881L10.7072 45.3782V44.8683L11.2171 44.3585V43.8486L12.7467 42.319V41.8091L15.296 39.2598H15.8059L16.3157 38.7499H16.8256L17.3355 38.2401H19.3749L19.8848 37.7302H24.4736L24.9834 37.2203V34.1611H24.4736L23.4538 33.1414H22.944L22.4341 32.6315H21.9242L19.8848 30.5921V30.0822L18.3552 28.5526V28.0427L16.8256 26.5131H16.3157L15.8059 26.0033H15.296L14.7861 25.4934H11.7269Z" fill="url(#paint6_linear_1148_3977)"/>
<path d="M23.9669 23.4541L23.457 23.964V28.0429L24.9866 29.5725V30.0824L31.6149 36.7106V37.2205H32.1248L32.6346 37.7304V38.2402L33.1445 38.7501H35.184V34.1613L34.6741 33.6514V32.1218L34.1642 31.612V30.0824L33.6544 29.5725V28.5528L33.1445 28.0429V27.0232L32.6346 26.5133V26.0034L32.1248 25.4936V24.9837H31.6149L31.105 24.4738H30.0853L29.5754 23.964H28.5557L28.0458 23.4541H23.9669Z" fill="url(#paint7_linear_1148_3977)"/>
<path d="M104.52 14.2759V16.3153L105.03 16.8252V17.3351L105.54 17.8449V18.8647L106.05 19.3745V21.414L105.54 21.9239V22.9436L105.03 23.4535V23.9633L104.01 24.9831V25.4929L103.5 26.0028V26.5127L102.481 27.5324V29.062L101.971 29.5719V33.6508L102.481 34.1607V34.6705L102.99 35.1804V35.6903L104.01 36.71V37.2199L105.03 38.2396V39.7692L104.52 40.2791H103.5L102.99 39.7692H102.481L100.951 38.2396H100.441L96.3621 34.1607H95.8523L94.8325 33.1409H94.3227L93.3029 32.1212H92.2832L91.7733 31.6113H90.2437L89.7339 31.1015H85.655V31.6113L84.1254 33.1409V33.6508L83.1056 34.6705H82.5958L81.576 35.6903H81.0662L80.5563 36.2001H80.0464L79.5366 36.71H78.5168L78.007 36.2001H76.9872L76.4774 35.6903H75.9675L72.9083 32.6311V32.1212L72.3984 31.6113V30.0817L72.9083 29.5719V28.5521L73.4182 28.0423V27.5324L73.928 27.0225V26.5127L74.4379 26.0028V25.4929L74.9478 24.9831V24.4732L75.4576 23.9633V20.3943L74.9478 19.8844H72.3984L71.3787 20.9041H70.8688L70.359 21.414H69.8491L68.8294 22.4337H67.8096L67.2998 22.9436H66.28L65.7702 23.4535H59.1419V26.5127L59.6518 27.0225V27.5324L60.6715 28.5521V29.062L61.1814 29.5719V30.0817L61.6912 30.5916V31.1015L62.2011 31.6113V32.1212L62.711 32.6311V33.1409L63.2208 33.6508V34.1607L63.7307 34.6705V35.1804L64.2406 35.6903V36.71L64.7504 37.2199V38.2396L65.2603 38.7495V39.7692L65.7702 40.2791V41.8087L66.28 42.3185V45.3777L66.7899 45.8876V46.9073L67.8096 47.9271H72.3984L73.4182 46.9073H73.928L74.4379 46.3975H75.9675L76.4774 45.8876H82.0859L82.5958 45.3777H84.1254L84.6352 44.8679H85.1451L87.1846 42.8284L88.7142 44.358V44.8679L89.224 45.3777V45.8876L89.7339 46.3975V46.9073L90.2437 47.4172V48.9468L89.7339 49.4566H89.224L88.7142 49.9665H85.655L85.1451 50.4764H83.1056L82.5958 50.9862H81.0662L80.5563 51.4961H79.0267L78.5168 52.006H77.4971L76.9872 52.5158H76.4774L75.9675 53.0257H75.4576L74.9478 53.5356H74.4379L73.4182 54.5553H72.9083L71.3787 56.0849V56.5948L70.359 57.6145V58.1244L69.8491 58.6342V59.654L69.3392 60.1638V65.2625L68.8294 65.7724V66.7921L68.3195 67.302H67.8096L66.28 65.7724V65.2625L65.7702 64.7526V64.2428L65.2603 63.7329V62.7132L64.7504 62.2033V60.6737L64.2406 60.1638V56.0849L64.7504 55.575V54.5553L65.2603 54.0454V53.5356L65.7702 53.0257V50.9862H62.711L62.2011 51.4961H61.6912L61.1814 52.006H60.6715L60.1616 52.5158H59.6518L57.1024 55.0652V55.575L56.5926 56.0849L55.5728 55.0652V54.5553L50.4742 49.4566H49.4545L48.9446 48.9468H46.9051L46.3953 49.4566V53.5356L46.9051 54.0454V54.5553L47.415 55.0652V56.0849L47.9249 56.5948L47.415 57.1046V58.1244L45.8854 59.654H44.8657L44.3558 59.1441H43.8459L42.8262 58.1244H42.3163L39.2571 55.0652H37.2177V58.1244L37.7275 58.6342V59.654L38.2374 60.1638V60.6737L38.7473 61.1836V61.6934L39.767 62.7132V63.223L40.2769 63.7329H40.7867L41.8065 64.7526H42.3163L43.3361 65.7724H44.3558L44.8657 66.2822H45.3755L45.8854 66.7921H46.9051L47.415 67.302H47.9249L48.4347 67.8118H48.9446L49.4545 68.3217H50.4742L50.984 68.8316H51.4939L52.0038 69.3414H53.0235L53.5334 69.8513H54.0432L54.5531 70.3612H55.063L55.5728 70.871H56.0827L56.5926 71.3809H57.1024L58.1222 72.4006H58.632L59.1419 72.9105H59.6518L64.2406 77.4993V78.0092L64.7504 78.519V79.0289L65.2603 79.5388V80.0486L65.7702 80.5585H66.28L66.7899 81.0684H70.8688L71.3787 80.5585H71.8886L72.3984 80.0486H73.928L74.9478 81.0684V81.5782L75.4576 82.0881V82.598L74.9478 83.1078V84.1276L74.4379 84.6374V86.6769L73.928 87.1868V91.7755L74.4379 92.2854H76.4774L76.9872 91.7755H77.4971L78.007 91.2657H78.5168L79.0267 90.7558H79.5366L80.0464 90.2459H80.5563L81.0662 90.7558V91.7755L80.5563 92.2854V92.7953L80.0464 93.3051V94.3249L79.5366 94.8347V95.3446L79.0267 95.8545V96.8742L78.5168 97.3841V98.4038L78.007 98.9137V99.9334L77.4971 100.443V101.463L76.9872 101.973V103.502L76.4774 104.012V105.542L75.9675 106.052V110.641L75.4576 111.15V113.7L74.9478 114.21V115.739L74.4379 116.249V116.759L73.928 117.269V117.779L73.4182 118.289V118.798L72.3984 119.818V120.328L67.8096 124.917H67.2998L66.28 125.937H65.7702L65.2603 126.446H64.7504L64.2406 126.956H63.7307L63.2208 127.466H62.711L62.2011 127.976H61.1814L60.6715 128.486H59.6518L59.1419 128.996H58.1222L57.6123 129.506H55.5728L55.063 130.016H54.0432L53.5334 130.525H52.5136L52.0038 131.035H51.4939L50.4742 132.055V135.114L50.984 135.624H51.4939L52.5136 136.644H53.5334L54.0432 137.154H54.5531L55.063 137.664H56.0827L56.5926 138.173H57.6123L58.1222 138.683H59.1419L59.6518 139.193H61.1814L61.6912 139.703H62.711L63.2208 140.213H64.2406L64.7504 140.723H65.2603L66.28 141.742H66.7899L68.8294 143.782V144.292L69.3392 144.802V145.312L69.8491 145.821V146.841L70.359 147.351L69.8491 147.861V149.39L69.3392 149.9V150.41L68.8294 150.92V151.43L68.3195 151.94V152.45L67.2998 153.469V153.979L63.2208 158.058H62.711L60.6715 160.098H60.1616L58.632 161.627H58.1222L57.6123 162.137H57.1024L56.0827 163.157H55.5728L54.5531 164.177H54.0432L53.5334 164.686H53.0235L52.0038 165.706H51.4939L50.984 166.216H50.4742L49.4545 167.236H48.9446L48.4347 167.746H47.9249L46.9051 168.765H46.3953L45.8854 169.275H45.3755L44.8657 169.785H44.3558L43.3361 170.805H42.8262L42.3163 171.315H41.8065L41.2966 171.825H40.7867L40.2769 172.334H39.767L39.2571 172.844H38.7473L38.2374 173.354H37.7275L37.2177 173.864H36.1979L35.6881 174.374H34.6683L34.1585 174.884H33.1387L32.6289 175.394H27.5302L27.0203 174.884H26.0006L25.4907 174.374H22.9414V177.943L23.4513 178.453H23.9611L24.471 178.963H24.9809L25.4907 179.473H26.0006L26.5105 179.982H27.5302L28.0401 180.492H28.5499L29.0598 181.002H30.0795L30.5894 181.512H31.0993L32.119 182.532H32.6289L33.1387 183.042H33.6486L37.7275 187.121V187.63L38.7473 188.65V189.16L39.767 190.18V190.69L40.2769 191.199V191.709L40.7867 192.219V192.729L41.8065 193.749V194.259L42.3163 194.769V195.278L43.3361 196.298V196.808L44.3558 197.828V198.338L46.9051 200.887V201.397L47.415 201.907H47.9249L49.4545 203.436H49.9643L50.4742 203.946H50.984L51.4939 204.456H53.0235L53.5334 204.966H56.5926L57.1024 204.456H58.632L59.1419 203.946H59.6518L60.1616 203.436H60.6715L66.28 197.828V197.318L68.3195 195.278V194.769L69.8491 193.239V192.729L71.3787 191.199V190.69L72.3984 189.67V189.16L73.928 187.63V187.121L74.9478 186.101V185.591L76.4774 184.061V183.551L77.4971 182.532V182.022L79.0267 180.492V179.982L80.5563 178.453V177.943L85.1451 173.354L86.6747 174.884V175.903L87.1846 176.413V185.081L86.6747 185.591V189.16L86.1648 189.67V192.729L85.655 193.239V195.788L85.1451 196.298V199.867L84.6352 200.377V205.476L85.1451 205.986V207.005L86.1648 208.025H88.7142L90.2437 206.495V205.986L90.7536 205.476V204.966L91.2635 204.456V203.946L91.7733 203.436V202.417L92.2832 201.907V201.397L92.7931 200.887V199.867L93.3029 199.357V198.847L93.8128 198.338V197.318L94.3227 196.808V196.298L94.8325 195.788V194.769L95.3424 194.259V193.749L95.8523 193.239V192.219L96.3621 191.709V191.199L96.872 190.69V190.18L97.3819 189.67V189.16L97.8917 188.65V188.14L98.4016 187.63V187.121L98.9115 186.611V186.101L99.4213 185.591V185.081L100.441 184.061V183.551L101.971 182.022V181.512L102.481 181.002H102.99L103.5 180.492H104.01L104.52 181.002V181.512L105.54 182.532V183.042L106.05 183.551V184.061L107.069 185.081V185.591L108.089 186.611V187.121L108.599 187.63V188.14L110.129 189.67V190.18H110.638L111.148 190.69H113.698V190.18L114.207 189.67V181.002L113.698 180.492V172.844L113.188 172.334V156.019L113.698 155.509V152.959L114.207 152.45V151.43L114.717 150.92H116.247L116.757 150.41H118.286L118.796 149.9H119.816L120.326 149.39H121.346L121.855 148.881H122.365L122.875 148.371H123.385L123.895 147.861H124.405L125.934 146.331H126.444L128.484 144.292V143.782L129.503 142.762V142.252L130.523 141.233V140.723L131.033 140.213V139.193L131.543 138.683V137.154L132.053 136.644V135.114L132.563 134.604H137.661L138.171 134.094H139.191L139.701 133.585H140.211L143.27 130.525V130.016L145.309 127.976V127.466L146.839 125.937V125.427L147.859 124.407V123.897L148.369 123.387V122.877L148.878 122.368V121.348L149.388 120.838V116.249L148.878 115.739V114.72L147.859 113.7V113.19L147.349 112.68H146.839L145.819 111.66L146.329 111.15V110.641L146.839 110.131V109.621L147.859 108.601V108.091L149.388 106.562V106.052L149.898 105.542V105.032L150.918 104.012V103.502L151.428 102.993V102.483L151.938 101.973V101.463L152.447 100.953V100.443L152.957 99.9334V98.9137L153.467 98.4038V97.3841L153.977 96.8742V95.3446L154.487 94.8347V85.6572L153.977 85.1473V83.6177L153.467 83.1078V82.0881L152.957 81.5782V81.0684L152.447 80.5585V80.0486L153.467 79.0289V78.519L153.977 78.0092V76.9894L154.487 76.4796V75.4598L154.997 74.95V68.8316L154.487 68.3217V66.7921L153.977 66.2822V65.7724L153.467 65.2625H149.898L147.349 67.8118H146.329L145.819 67.302V66.7921L145.309 66.2822V65.7724L144.799 65.2625V64.2428L145.309 63.7329V62.7132L145.819 62.2033V61.6934L146.329 61.1836V60.6737L146.839 60.1638V59.1441L147.349 58.6342V57.6145L147.859 57.1046V48.9468L147.349 48.4369V47.9271L146.839 47.4172V46.9073L146.329 46.3975V45.8876L143.27 42.8284H142.76L142.25 42.3185H138.681L138.171 42.8284V48.4369L138.681 48.9468V50.4764L139.191 50.9862V52.5158L138.681 53.0257V54.0454L138.171 54.5553V55.0652L137.661 55.575H134.092L133.582 56.0849H132.053L130.523 57.6145V58.1244L130.013 58.6342V64.7526L130.523 65.2625V66.7921L130.013 67.302L129.503 66.7921H128.994L128.484 66.2822H127.974L126.444 64.7526H125.934L123.895 62.7132V62.2033L121.855 60.1638V59.654L120.836 58.6342V58.1244L120.326 57.6145V57.1046L119.816 56.5948V55.575L119.306 55.0652V53.0257L119.816 52.5158L120.836 53.5356H121.346L121.855 54.0454H126.444L126.954 53.5356H127.464L127.974 53.0257H128.484L128.994 52.5158H129.503L130.523 51.4961H131.033L133.073 49.4566V48.9468L134.092 47.9271V47.4172L134.602 46.9073V40.2791L134.092 39.7692V39.2593L133.582 38.7495V38.2396L133.073 37.7297V37.2199L132.563 36.71V35.6903L132.053 35.1804V34.6705L131.543 34.1607V33.6508L131.033 33.1409V32.6311L130.523 32.1212V31.6113L130.013 31.1015V30.5916L128.994 29.5719V29.062L127.974 28.0423V27.5324L125.425 24.9831H124.915L124.405 24.4732H121.346V27.0225L121.855 27.5324V29.062L122.365 29.5719V31.6113L122.875 32.1212V35.1804L123.385 35.6903V36.2001L122.875 36.71V38.2396L122.365 38.7495V39.2593L121.855 39.7692V40.2791L119.306 42.8284H118.286L116.757 41.2988V40.7889L116.247 40.2791V39.7692L115.737 39.2593V38.2396L115.227 37.7297V35.6903L114.717 35.1804V32.1212L114.207 31.6113V27.0225L113.698 26.5127V24.4732L113.188 23.9633V22.4337L112.678 21.9239V21.414L112.168 20.9041V20.3943L111.658 19.8844V19.3745L111.148 18.8647V18.3548L107.579 14.7857H107.069L106.559 14.2759H104.52Z" fill="url(#paint8_linear_1148_3977)"/>
<path d="M49.4572 14.2759L47.9276 15.8055H47.4177L43.3388 19.8844H42.8289L40.2796 22.4337V22.9436L39.7697 23.4535V23.9633L39.2599 24.4732V25.4929L38.75 26.0028V30.5916L39.2599 31.1015V33.1409L39.7697 33.6508V35.6903L40.2796 36.2001V37.2199L40.7895 37.7297V38.7495L41.2993 39.2593V39.7692L41.8092 40.2791V40.7889L42.3191 41.2988H42.8289L43.3388 41.8087H43.8487L44.3585 42.3185H47.9276L48.4375 42.8284H57.6151L58.1249 43.3383H60.1644V39.2593L59.6545 38.7495V37.7297L59.1446 37.2199V36.71L58.6348 36.2001V35.6903L55.0657 32.1212H54.5559L50.4769 28.0423V27.5324L49.9671 27.0225V26.0028L50.4769 25.4929V24.9831L50.9868 24.4732V23.9633L52.0065 22.9436V22.4337L52.5164 21.9239V21.414L53.0263 20.9041V19.8844L53.5361 19.3745V15.8055L53.0263 15.2956V14.7857L52.5164 14.2759H49.4572Z" fill="url(#paint9_linear_1148_3977)"/>
<path d="M54.043 3.56909V5.60856L54.5528 6.11842V6.62829L63.2206 15.296H63.7304L64.2403 15.8059H74.9475L75.4574 15.296H76.4771V12.7467L75.9672 12.2368V11.727L75.4574 11.2171H74.9475L73.9278 10.1974H73.4179L72.3982 9.17762H71.8883L71.3784 8.66775H70.8686L70.3587 8.15789H69.339L68.8291 7.64802H68.3192L67.8094 7.13816H66.7896L66.2798 6.62829H65.7699L65.26 6.11842H64.2403L63.7304 5.60856H63.2206L62.7107 5.09869H62.2008L61.691 4.58882H61.1811L60.6712 4.07896H59.6515L59.1416 3.56909H54.043Z" fill="url(#paint10_linear_1148_3977)"/>
<path d="M78.5195 0V5.09866L79.0294 5.60853V6.11839L79.5393 6.62826V7.13813L80.0491 7.64799V8.15786L82.5985 10.7072V11.2171L83.1083 11.7269V12.2368L83.6182 12.7467V15.296L84.1281 15.8059V18.8651L84.6379 19.3749V19.8848L89.2267 24.4736V24.9834L90.2465 26.0032V26.513L90.7563 27.0229V28.0426L91.2662 28.5525H91.7761L92.2859 29.0624H95.855V16.3157L95.3451 15.8059V13.7664L94.8353 13.2565V12.2368L94.3254 11.7269V11.2171L93.8155 10.7072V10.1973L87.6971 4.07893H87.1873L85.6577 2.54933H85.1478L84.1281 1.5296H83.6182L83.1083 1.01973H82.5985L82.0886 0.509866H81.5787L81.0689 0H78.5195Z" fill="url(#paint11_linear_1148_3977)"/>
<defs>
<linearGradient id="paint0_linear_1148_3977" x1="31.5266" y1="159.358" x2="28.766" y2="168.581" gradientUnits="userSpaceOnUse">
<stop stop-color="#233A4E"/>
<stop offset="0.331731" stop-color="#4F66AF"/>
<stop offset="0.653846" stop-color="#9C6DB0"/>
<stop offset="1" stop-color="#FFAEAE"/>
</linearGradient>
<linearGradient id="paint1_linear_1148_3977" x1="39.9445" y1="136.291" x2="28.2018" y2="166.126" gradientUnits="userSpaceOnUse">
<stop stop-color="#233A4E"/>
<stop offset="0.331731" stop-color="#4F66AF"/>
<stop offset="0.653846" stop-color="#9C6DB0"/>
<stop offset="1" stop-color="#FFAEAE"/>
</linearGradient>
<linearGradient id="paint2_linear_1148_3977" x1="13.4073" y1="98.9654" x2="7.8434" y2="109.728" gradientUnits="userSpaceOnUse">
<stop stop-color="#233A4E"/>
<stop offset="0.331731" stop-color="#4F66AF"/>
<stop offset="0.653846" stop-color="#9C6DB0"/>
<stop offset="1" stop-color="#FFAEAE"/>
</linearGradient>
<linearGradient id="paint3_linear_1148_3977" x1="58.2941" y1="99.524" x2="48.3239" y2="130.001" gradientUnits="userSpaceOnUse">
<stop stop-color="#233A4E"/>
<stop offset="0.331731" stop-color="#4F66AF"/>
<stop offset="0.653846" stop-color="#9C6DB0"/>
<stop offset="1" stop-color="#FFAEAE"/>
</linearGradient>
<linearGradient id="paint4_linear_1148_3977" x1="38.2303" y1="60.272" x2="32.776" y2="72.1175" gradientUnits="userSpaceOnUse">
<stop stop-color="#233A4E"/>
<stop offset="0.331731" stop-color="#4F66AF"/>
<stop offset="0.653846" stop-color="#9C6DB0"/>
<stop offset="1" stop-color="#FFAEAE"/>
</linearGradient>
<linearGradient id="paint5_linear_1148_3977" x1="19.9929" y1="59.9287" x2="10.4673" y2="77.8315" gradientUnits="userSpaceOnUse">
<stop stop-color="#233A4E"/>
<stop offset="0.331731" stop-color="#4F66AF"/>
<stop offset="0.653846" stop-color="#9C6DB0"/>
<stop offset="1" stop-color="#FFAEAE"/>
</linearGradient>
<linearGradient id="paint6_linear_1148_3977" x1="23.0495" y1="28.3684" x2="6.61837" y2="54.7418" gradientUnits="userSpaceOnUse">
<stop stop-color="#233A4E"/>
<stop offset="0.331731" stop-color="#4F66AF"/>
<stop offset="0.653846" stop-color="#9C6DB0"/>
<stop offset="1" stop-color="#FFAEAE"/>
</linearGradient>
<linearGradient id="paint7_linear_1148_3977" x1="34.2762" y1="25.1453" x2="23.83" y2="38.5247" gradientUnits="userSpaceOnUse">
<stop stop-color="#233A4E"/>
<stop offset="0.331731" stop-color="#4F66AF"/>
<stop offset="0.653846" stop-color="#9C6DB0"/>
<stop offset="1" stop-color="#FFAEAE"/>
</linearGradient>
<linearGradient id="paint8_linear_1148_3977" x1="144.774" y1="35.6975" x2="9.5248" y2="189.699" gradientUnits="userSpaceOnUse">
<stop stop-color="#233A4E"/>
<stop offset="0.331731" stop-color="#4F66AF"/>
<stop offset="0.653846" stop-color="#9C6DB0"/>
<stop offset="1" stop-color="#FFAEAE"/>
</linearGradient>
<linearGradient id="paint9_linear_1148_3977" x1="58.5067" y1="17.4891" x2="38.4819" y2="42.139" gradientUnits="userSpaceOnUse">
<stop stop-color="#233A4E"/>
<stop offset="0.331731" stop-color="#4F66AF"/>
<stop offset="0.653846" stop-color="#9C6DB0"/>
<stop offset="1" stop-color="#FFAEAE"/>
</linearGradient>
<linearGradient id="paint10_linear_1148_3977" x1="74.7405" y1="4.92204" x2="69.6573" y2="20.4907" gradientUnits="userSpaceOnUse">
<stop stop-color="#233A4E"/>
<stop offset="0.331731" stop-color="#4F66AF"/>
<stop offset="0.653846" stop-color="#9C6DB0"/>
<stop offset="1" stop-color="#FFAEAE"/>
</linearGradient>
<linearGradient id="paint11_linear_1148_3977" x1="94.5131" y1="3.21324" x2="74.0545" y2="23.6002" gradientUnits="userSpaceOnUse">
<stop stop-color="#233A4E"/>
<stop offset="0.331731" stop-color="#4F66AF"/>
<stop offset="0.653846" stop-color="#9C6DB0"/>
<stop offset="1" stop-color="#FFAEAE"/>
</linearGradient>
</defs>
</svg>
