<svg width="295" height="295" viewBox="0 0 295 295" fill="none" xmlns="http://www.w3.org/2000/svg">
<rect width="295" height="295" rx="65" fill="#EDEDED"/>
<path d="M163.692 243.523C158.561 244.529 153.513 245.055 148.457 244.995C140.26 244.899 132.225 243.612 124.468 240.822C109.518 235.444 97.3406 226.357 88.494 213.096C86.6154 210.281 84.4901 209.455 81.425 209.127C72.0354 208.123 62.8327 206.237 54.3248 201.868C51.649 200.494 49.2453 198.708 47.3868 196.301C44.0349 191.958 44.2191 186.549 47.9033 181.16C52.0081 175.156 57.7019 170.921 63.6916 167.035C66.9498 164.921 70.3227 163 73.8099 161.293C74.7516 160.833 75.207 160.289 75.3399 159.155C77.0087 144.925 82.0688 132.044 91.0834 120.888C102.638 106.588 117.384 97.4309 135.536 94.2648C156.019 90.6921 174.648 95.4134 191.482 107.546C192.062 107.965 192.654 108.369 193.25 108.765C193.337 108.823 193.475 108.804 193.743 108.842C194.734 107.053 195.287 105.039 195.999 103.094C197.437 99.1645 198.827 95.2168 200.292 91.2976C200.669 90.2915 200.606 89.5608 199.873 88.6957C198.134 86.6417 197.927 83.9324 199.195 82.0587C200.368 80.3248 202.819 79.5447 205.28 80.2708C215.046 83.1513 224.806 86.0523 234.554 88.9937C237.394 89.8507 238.801 91.6625 238.759 94.0931C238.719 96.4398 237.274 98.2737 234.638 99.1308C233.748 99.4199 233.249 99.8332 232.996 100.773C231.275 107.175 229.521 113.569 227.723 119.951C227.215 121.753 227.342 123.483 227.84 125.24C228.508 127.595 229.239 129.938 229.76 132.326C230.034 133.58 230.709 134.132 231.819 134.491C235.923 135.819 239.848 137.536 243.411 140.014C250.501 144.947 251.932 151.778 247.4 159.204C243.558 165.499 238.142 170.272 232.374 174.678C229.67 176.744 226.872 178.686 224.094 180.652C223.274 181.232 222.821 181.886 222.618 182.943C218.789 202.952 208.64 219.004 192.304 231.045C183.78 237.329 174.23 241.415 163.692 243.523ZM71.5697 176.988C70.7891 177.891 69.938 178.742 69.2399 179.705C66.0045 184.168 66.7738 188.993 71.2284 192.238C73.2296 193.696 75.5077 194.578 77.8627 195.283C85.8697 197.68 94.1366 198.126 102.4 198.476C106.685 198.657 110.977 198.428 115.269 198.205C120.088 197.954 124.894 197.564 129.669 196.963C137.57 195.968 145.407 194.557 153.184 192.798C173.942 188.104 193.854 181.18 212.29 170.356C216.303 167.999 220.182 165.423 223.626 162.229C225.487 160.503 226.142 158.646 225.628 156.067C223.914 147.456 221.724 138.964 219.492 130.482C218.192 125.54 216.933 120.643 218.528 115.516C219.273 113.123 219.889 110.689 220.541 108.267C221.39 105.115 222.215 101.957 223.092 98.6437C219.199 97.4528 215.485 96.3887 211.825 95.1617C210.326 94.6591 209.667 95.0888 209.171 96.4974C207.643 100.838 206.003 105.14 204.452 109.473C203.163 113.074 201.431 116.394 198.515 118.942C194.736 122.243 190.922 125.505 187.09 128.743C178.923 135.645 170.628 142.402 163.496 150.439C158.731 155.808 159.482 161.958 165.547 165.804C170.81 169.141 176.61 171.402 182.318 173.832C184.033 174.562 185.742 175.306 187.501 176.064C186.964 176.926 186.24 176.94 185.655 177.163C173.778 181.689 161.617 185.263 149.187 187.88C135.176 190.829 121.047 192.809 106.685 192.659C103.11 192.621 99.5428 192.65 95.9653 192.345C90.4421 191.873 84.9746 191.172 79.5918 189.819C78.6041 189.57 78.0382 189.101 77.7662 188.119C77.0654 185.587 76.4508 183.041 75.9504 180.458C75.5866 178.58 75.7558 176.563 74.7879 174.751C73.4403 175.129 72.7045 176.133 71.5697 176.988Z" fill="black"/>
<path d="M66.9099 91.0359C69.4836 85.9684 73.8463 83.4334 79.4187 84.1068C84.3487 84.7026 87.7937 87.4972 89.332 92.3073C90.8634 97.0956 89.7529 101.401 86.0903 104.771C82.239 108.314 77.6287 108.881 72.9348 106.769C68.4846 104.767 66.0805 101.163 66.0021 96.1258C65.9753 94.4013 66.2026 92.7515 66.9099 91.0359Z" fill="black"/>
<path d="M220.142 59.8803C215.929 60.5707 213.606 58.1634 213.11 55.4984C212.706 53.33 213.421 51.5095 215.153 50.1696C216.897 48.8204 218.888 48.6763 220.882 49.5427C222.85 50.3972 223.924 51.9472 223.994 54.1109C224.09 57.0582 223.08 58.6044 220.142 59.8803Z" fill="black"/>
<path d="M233.479 69.4302C235.196 71.4717 235.459 73.7871 234.27 75.6408C233.153 77.3839 231.009 78.251 228.595 77.9365C226.399 77.6503 224.651 76.0748 224.123 73.7811C223.699 71.936 224.39 70.3685 225.92 69.2021C227.791 67.7765 229.923 67.7036 232.103 68.5392C232.569 68.7181 232.957 69.0734 233.479 69.4302Z" fill="black"/>
<path d="M166 156.846C166.022 155.244 166.673 154.092 167.676 153.075C170.483 150.23 173.386 147.465 176.027 144.475C178.035 142.202 180.509 141.61 183.171 142.231C192.517 144.411 201.981 144.903 211.525 144.63C213.154 144.583 214.735 144.918 216.289 145.374C217.133 145.621 217.768 146.104 218.117 146.948C219.274 149.746 220.525 152.509 221.605 155.336C222.477 157.622 221.911 159.329 219.85 160.745C215.196 163.941 210.055 166.237 204.863 168.41C202.161 169.541 199.406 170.546 196.67 171.597C195.645 171.99 194.616 172.19 193.527 171.753C185.199 168.414 176.784 165.275 168.891 160.962C167.279 160.082 166.07 158.957 166 156.846Z" fill="black"/>
</svg>
